<?xml version="1.0" encoding="utf-8"?>
<!-- Generator: Adobe Illustrator 29.8.7, SVG Export Plug-In . SVG Version: 9.03 Build 0)  -->
<svg version="1.1" xmlns="http://www.w3.org/2000/svg" xmlns:xlink="http://www.w3.org/1999/xlink" x="0px" y="0px"
	 viewBox="0 0 1492.4044189 443.0186768" style="enable-background:new 0 0 1492.4044189 443.0186768;" xml:space="preserve">
<g id="Layer_2">
</g>
<g id="Layer_1">
	<g>
		<path style="fill:none;" d="M147.0132446,207.1974487c14.719574,0.0224457,61.0240936,0.0840302,73.4322662-0.0071869
			c2.6743011-0.0196991,4.5964508-3.0484772,4.609024-5.7869263l0.0776215-16.9922485
			c0.0120544-2.6398468-2.1013184-4.6555939-4.8850555-4.654129l-73.2293091,0.0387573
			c-2.5089874,0.0013428-4.5417938,2.0066986-4.5403137,4.4790497l0.0106506,18.4384918
			C142.4895325,205.1875305,144.5022583,207.1936646,147.0132446,207.1974487z"/>
		<path style="fill:none;" d="M220.040863,224.1422882l-74.3528748-0.0884705
			c-2.0364075-0.0024414-3.1904297,1.9433899-3.1908875,3.6979828l-0.0064087,22.6753235
			c-0.0004578,1.7062836,1.1957245,3.7622528,3.1996155,3.7598877l75.3575592-0.0885315
			c3.7516174-0.8765259,5.7033386-2.7217712,5.6899414-6.0353088l-0.0693512-17.1598663
			C226.6549225,227.5504456,223.9567566,224.1469574,220.040863,224.1422882z"/>
		<path style="fill:none;" d="M365.6158752,179.4841461l-73.2765198,0.0207825
			c-2.741272,0.0007629-4.5771179,1.7943726-4.5788574,4.6794586l-0.0388184,64.3591309
			c-0.0015259,2.529068,1.318634,4.6536713,3.9621582,4.6532288l74.9169922-0.0131531
			c2.7989502-0.6842194,4.0327759-2.3392487,4.3950806-4.8578033l-0.0346375-63.1816101
			C370.9594727,181.8590546,368.7086182,179.4833069,365.6158752,179.4841461z"/>
		<path style="fill:#FFFFFF;" d="M125.2022018,161.3835602v108.0000153l100.3894577-0.0360718
			c11.432663-0.8898621,19.6911011-9.0601807,19.2485504-20.1934509
			c-0.744873-10.2036896,3.2534027-27.8417053-7.2988129-34.4064941c-1.0493164-0.8191071-0.9736938-2.3130798-0.0074768-3.2262878
			c8.1324768-7.9355316,5.7308044-24.1111298,5.5965271-34.2155762
			c-1.3581543-9.5947571-8.3174744-14.9716339-20.5490417-15.8892975L125.2022018,161.3835602z M142.477478,182.9082336
			c-0.0014801-2.4773865,2.0313263-4.4868011,4.5403137-4.4881592l73.2293091-0.0388184
			c2.7837372-0.0014801,4.89711,2.0183563,4.8850555,4.6635742c-0.993927,4.5789642,3.0180206,22.428009-4.6859283,22.8254395
			c-12.4088898,0.0913696-58.7134094,0.0296631-73.4329834,0.0071716c-2.5109863-0.0037994-4.5237122-2.0139923-4.525116-4.4933014
			L142.477478,182.9082336z M221.0478668,252.8736877l-75.3575592,0.0887146
			c-2.003891,0.0023804-3.2000732-2.0577698-3.1996155-3.7675323l0.0064087-22.721344
			c0.0004578-1.7581635,1.15448-3.7079315,3.1908875-3.7054901l74.3528748,0.0886383
			c3.9158936,0.0046997,6.6140594,3.4150848,6.627594,6.7747498l0.0693512,17.1947021
			C226.7512054,250.1463928,224.7994843,251.9953918,221.0478668,252.8736877z"/>
		<path style="fill:#FFFFFF;" d="M367.8700867,161.3835907l-78.2444153,0.1371155
			c-9.3052979,0.0163116-18.1592407,8.1734467-18.1621704,17.6679535l-0.022583,72.392395
			c-0.0030212,9.6263428,8.6439819,17.8204041,18.1655273,17.8024902l79.1334839-0.1490479
			c10.5625-0.0198364,18.453949-9.1544189,18.4599609-19.4312134l0.0401611-68.076416
			C387.2466125,170.6062622,378.5333862,161.3648987,367.8700867,161.3835907z M366.6008301,252.4189758l-74.9169922,0.0132141
			c-2.6435242,0.0004578-3.9636841-2.134491-3.9621582-4.6758575l0.0388184-64.6722412
			c0.0017395-2.8991241,1.8375854-4.7014618,4.5788574-4.7022247l73.2765198-0.0208893
			c3.0927429-0.0008392,5.3435974,2.3864746,5.3453979,5.6875763l0.0346375,63.4889984
			C370.633606,250.0683441,369.3997803,251.7314453,366.6008301,252.4189758z"/>
		<path style="fill:#FFFFFF;" d="M1204.2404785,231.0285645c10.6408691-0.0183105,20.2055664-6.8757324,20.7614746-18.0638885
			c0.5330811-10.7284698,0.0062256-21.1019592,0-32.1498566c-0.3959961-9.9897461-7.866333-19.4157257-18.7116699-19.4312592
			h-92.0506592v107.9579926c8.0795898,0.0444641,10.3041992,0.0155334,17.7895508,0l-0.1593018-90.970108l70.6153564,0.1164093
			c3.3968506,0.0055695,5.3762207,2.2857361,5.5805664,5.4661102l-0.0649414,24.5770721
			c-0.0080566,3.0525208-2.3461914,5.6940613-5.4451904,5.7141418h-53.074707l52.989502,55.0963745
			c4.8380127,0.1542053,16.2664795-0.1791687,28.0290527,0l-38.5036621-38.3129883
			C1196.8800049,230.9967499,1200.3231201,231.0352936,1204.2404785,231.0285645z"/>
		<rect x="841.6636963" y="161.3881226" style="fill:#FFFFFF;" width="104.6653214" height="18.1151047"/>
		<path style="fill:#FFFFFF;" d="M859.875,252.250412l0.0818481-28.7999115l79.8361206,0.0303497
			c0.0196533-7.7015839,0.0196533-8.4193726,0-17.7668457l-98.1292725,0.0038452v63.6657257h104.6653442V252.250412H859.875z"/>
		<path style="fill:#FFFFFF;" d="M1087.2521973,161.3835602H971.8050537c-0.067688,7.0835571-0.0483398,8.6036224,0,17.0906982
			h48.4858398v90.8682404c7.7659912,0.0508118,9.7680664,0.0797119,18.0847168-0.0693054v-90.7989349h48.8765869V161.3835602z"/>
		<path style="fill:#014EFF;" d="M469.0883789,201.6176147c-13.0635071-13.4113312-26.1270142-26.7066345-39.1905212-40.1179657
			c-7.6795349,0.0773621-15.3590393-0.0774384-23.0385437,0c15.0108337,14.9914398,30.021637,30.0989532,45.0324707,45.0904083
			c5.6998596,0,11.3998718,0,17.099884,0c0.0643921,0,0.1290588,0,0.1934509,0c5.7000122,0,11.4000244,0,17.099884,0
			c15.0108337-14.9914551,30.021637-30.0989685,45.0324402-45.0904083c-7.6795044-0.0774384-15.3590088,0.0773621-23.0385132,0
			C495.2154236,174.9109802,482.1519165,188.2062836,469.0883789,201.6176147z"/>
		<path style="fill:#014EFF;" d="M469.0883789,228.7407532c-13.0635071,13.4113312-26.1270142,26.7066345-39.1905212,40.117981
			c-7.6795349-0.0773621-15.3590393,0.0774231-23.0385437,0c15.0108337-14.9914551,30.021637-30.0989685,45.0324707-45.0904236
			c5.6998596,0,11.3998718,0,17.099884,0c0.0643921,0,0.1290588,0,0.1934509,0c5.7000122,0,11.4000244,0,17.099884,0
			c15.0108337,14.9914551,30.021637,30.0989685,45.0324402,45.0904236c-7.6795044,0.0774231-15.3590088-0.0773621-23.0385132,0
			C495.2154236,255.4473877,482.1519165,242.1520844,469.0883789,228.7407532z"/>
		<path style="fill:#FFFFFF;" d="M649.5997925,161.3835907l-78.2443848,0.1371155
			c-9.3052979,0.0163116-18.1592407,8.1734467-18.1621704,17.6679535l-0.022583,72.392395
			c-0.0029907,9.6263428,8.6439819,17.8204041,18.1655273,17.8024902l79.1334839-0.1490479
			c10.5625-0.0198364,18.4539795-9.1544189,18.4599609-19.4312134l0.0401611-68.076416
			C668.9763184,170.6062622,660.2631226,161.3648987,649.5997925,161.3835907z M648.3305664,252.4189758l-74.9169922,0.0132141
			c-2.6434937,0.0004578-3.9636841-2.134491-3.9621582-4.6758575l0.0388184-64.6722412
			c0.001709-2.8991241,1.8375854-4.7014618,4.5788574-4.7022247l73.2765503-0.0208893
			c3.0927124-0.0008392,5.3435669,2.3864746,5.3453979,5.6875763l0.0346069,63.4889984
			C652.3633423,250.0683441,651.1295166,251.7314453,648.3305664,252.4189758z"/>
		<path style="fill:#FFFFFF;" d="M801.2474976,161.3835602l-43.9039917,53.2602539l-43.9040527-53.2602539h-17.835022V269.284668
			c5.1501465,0.1193542,16.7293701,0.1437988,16.7904053,0v-80.9161224l44.9421387,52.4730682v0.0151367l0.0065308-0.0075684
			l0.0064697,0.0075684v-0.0151367l44.9420776-52.4730682v80.9161224c0.0610962,0.1437988,11.6401978,0.1193542,16.7903442,0
			V161.3835602H801.2474976z"/>
		<polygon style="fill:#FFFFFF;" points="1344.0283203,161.3835602 1306.8592529,203.9414978 1269.6901855,161.3835602 
			1246.5162354,161.3835602 1298.1254883,221.0138397 1298.1643066,269.3835754 1306.8834229,269.3835754 1315.5541992,269.3835754 
			1315.5930176,221.0138397 1367.2021484,161.3835602 		"/>
	</g>
</g>
<g id="Layer_3">
</g>
</svg>
