<?xml version="1.0" encoding="UTF-8"?>
<svg id="Wordmarks" xmlns="http://www.w3.org/2000/svg" version="1.1" viewBox="0 0 620.01 137.53">
  <!-- Generator: Adobe Illustrator 30.2.1, SVG Export Plug-In . SVG Version: 2.1.1 Build 1)  -->
  <defs>
    <style>
      .st0 {
        fill: #014eff;
      }

      .st1 {
        fill: #fff;
      }

      .st2 {
        fill: none;
      }
    </style>
  </defs>
  <rect id="Clearspace" class="st2" width="620.01" height="137.53"/>
  <g id="Wordmark">
    <path class="st1" d="M45.93,45.89v45.93l42.69-.02c4.86-.38,8.37-3.85,8.19-8.59-.32-4.34,1.38-11.84-3.1-14.63-.45-.35-.41-.98,0-1.37,3.46-3.37,2.44-10.25,2.38-14.55-.58-4.08-3.54-6.37-8.74-6.76h-41.41ZM53.27,55.04c0-1.05.86-1.91,1.93-1.91l31.14-.02c1.18,0,2.08.86,2.08,1.98-.42,1.95,1.28,9.54-1.99,9.71-5.28.04-24.97.01-31.23,0-1.07,0-1.92-.86-1.92-1.91v-7.86ZM86.69,84.79l-32.05.04c-.85,0-1.36-.88-1.36-1.6v-9.66c0-.75.49-1.58,1.36-1.58l31.62.04c1.67,0,2.81,1.45,2.82,2.88l.03,7.31c0,1.41-.82,2.2-2.42,2.57Z"/>
    <path class="st1" d="M149.12,45.89l-33.27.06c-3.96,0-7.72,3.48-7.72,7.51v30.78c-.01,4.09,3.67,7.58,7.72,7.57l33.65-.06c4.49,0,7.85-3.89,7.85-8.26l.02-28.95c0-4.73-3.7-8.66-8.24-8.65ZM148.58,84.6h-31.86c-1.12,0-1.69-.9-1.68-1.98l.02-27.5c0-1.23.78-2,1.95-2h31.16c1.32,0,2.27,1.01,2.27,2.41v27c-.14,1.08-.66,1.78-1.85,2.08Z"/>
    <path class="st1" d="M504.79,75.5c4.53,0,8.59-2.92,8.83-7.68.23-4.56,0-8.97,0-13.67-.17-4.25-3.35-8.26-7.96-8.26h-39.14v45.91c3.44.02,4.38,0,7.57,0l-.07-38.69,30.03.05c1.44,0,2.29.97,2.37,2.32l-.03,10.45c0,1.3-1,2.42-2.32,2.43h-22.57l22.53,23.43c2.06.07,6.92-.08,11.92,0l-16.37-16.29c2.08-.01,3.54,0,5.21,0Z"/>
    <rect class="st1" x="350.6" y="45.89" width="44.51" height="7.7"/>
    <path class="st1" d="M358.35,84.53l.03-12.25h33.95c0-3.26,0-3.57,0-7.54h-41.73v27.08h44.51v-7.29h-36.76Z"/>
    <path class="st1" d="M455.04,45.89h-49.09c-.03,3.01-.02,3.66,0,7.27h20.62v38.64c3.3.02,4.15.03,7.69-.03v-38.61h20.78v-7.27Z"/>
    <path class="st1" d="M268.93,45.89l-33.27.06c-3.96,0-7.72,3.48-7.72,7.51v30.78c-.01,4.09,3.67,7.58,7.72,7.57l33.65-.06c4.49,0,7.85-3.89,7.85-8.26l.02-28.95c0-4.73-3.7-8.66-8.24-8.65ZM268.39,84.6h-31.86c-1.12,0-1.69-.9-1.68-1.98l.02-27.5c0-1.23.78-2,1.95-2h31.16c1.32,0,2.27,1.01,2.27,2.41v27c-.14,1.08-.66,1.78-1.85,2.08Z"/>
    <path class="st1" d="M333.42,45.89l-18.67,22.65-18.67-22.65h-7.58v45.88c2.19.05,7.11.06,7.14,0v-34.41l19.11,22.31h0s0,0,0,0h0s0,0,0,0l19.11-22.31v34.41c.03.06,4.95.05,7.14,0v-45.88h-7.58Z"/>
    <polygon class="st1" points="564.23 45.89 548.43 63.98 532.62 45.89 522.77 45.89 544.71 71.24 544.73 91.81 548.44 91.81 552.12 91.81 552.14 71.24 574.09 45.89 564.23 45.89"/>
    <path class="st0" d="M192.05,63.09c-5.56-5.75-11.11-11.45-16.67-17.2-3.27.01-6.53,0-9.8,0,6.38,6.43,12.77,12.9,19.15,19.33h14.63c6.38-6.43,12.77-12.9,19.15-19.33-3.28.01-6.5,0-9.8,0-5.56,5.75-11.11,11.45-16.67,17.2Z"/>
    <path class="st0" d="M192.05,74.61c-5.56,5.75-11.11,11.45-16.67,17.2-3.27-.01-6.53,0-9.8,0,6.38-6.43,12.77-12.9,19.15-19.33h14.63c6.38,6.43,12.77,12.9,19.15,19.33-3.28-.01-6.5,0-9.8,0-5.56-5.75-11.11-11.45-16.67-17.2Z"/>
  </g>
</svg>